{
  "accessors": [
    {
      "bufferView": 2,
      "componentType": 5126,
      "count": 65532,
      "max": [
        0.9507930278778076,
        0.7887669801712036,
        0.3324260115623474
      ],
      "min": [
        -0.9093149900436401,
        -0.8000119924545288,
        -0.3317610025405884
      ],
      "type": "VEC3"
    },
    {
      "bufferView": 2,
      "byteOffset": 786384,
      "componentType": 5126,
      "count": 65532,
      "max": [
        0.9999938011169434,
        1.0,
        0.9999898076057434
      ],
      "min": [
        -0.9998307824134827,
        -0.9999997615814209,
        -0.9999985098838806
      ],
      "type": "VEC3"
    },
    {
      "bufferView": 1,
      "componentType": 5126,
      "count": 65532,
      "max": [
        0.9998419880867004,
        0.9997979998588562
      ],
      "min": [
        0.0005579999997280538,
        2.9802322387695313e-06
      ],
      "type": "VEC2"
    },
    {
      "bufferView": 0,
      "componentType": 5125,
      "count": 330024,
      "type": "SCALAR"
    },
    {
      "bufferView": 2,
      "byteOffset": 1572768,
      "componentType": 5126,
      "count": 65532,
      "max": [
        0.9410049915313721,
        0.789870023727417,
        0.3316250145435333
      ],
      "min": [
        -0.9418429732322693,
        -0.799938976764679,
        -0.3325819969177246
      ],
      "type": "VEC3"
    },
    {
      "bufferView": 2,
      "byteOffset": 2359152,
      "componentType": 5126,
      "count": 65532,
      "max": [
        0.999996542930603,
        0.9999995231628418,
        0.9999971389770508
      ],
      "min": [
        -0.9999979734420776,
        -0.999998927116394,
        -0.9999908208847046
      ],
      "type": "VEC3"
    },
    {
      "bufferView": 1,
      "byteOffset": 524256,
      "componentType": 5126,
      "count": 65532,
      "max": [
        0.9999899864196777,
        0.9999769926071167
      ],
      "min": [
        3.199999991920777e-05,
        0.00023698806762695313
      ],
      "type": "VEC2"
    },
    {
      "bufferView": 0,
      "byteOffset": 1320096,
      "componentType": 5125,
      "count": 323253,
      "type": "SCALAR"
    },
    {
      "bufferView": 2,
      "byteOffset": 3145536,
      "componentType": 5126,
      "count": 65532,
      "max": [
        0.9367920160293579,
        0.7978799939155579,
        0.18728099763393402
      ],
      "min": [
        -0.9518640041351318,
        -0.799826979637146,
        -0.12293600291013718
      ],
      "type": "VEC3"
    },
    {
      "bufferView": 2,
      "byteOffset": 3931920,
      "componentType": 5126,
      "count": 65532,
      "max": [
        0.9999943971633911,
        0.9999982714653015,
        0.9999903440475464
      ],
      "min": [
        -0.9999969005584717,
        -0.9999997615814209,
        -0.9999997615814209
      ],
      "type": "VEC3"
    },
    {
      "bufferView": 1,
      "byteOffset": 1048512,
      "componentType": 5126,
      "count": 65532,
      "max": [
        0.9999790191650391,
        0.9999459981918335
      ],
      "min": [
        2.9000000722589903e-05,
        0.0002390146255493164
      ],
      "type": "VEC2"
    },
    {
      "bufferView": 0,
      "byteOffset": 2613108,
      "componentType": 5125,
      "count": 318057,
      "type": "SCALAR"
    },
    {
      "bufferView": 2,
      "byteOffset": 4718304,
      "componentType": 5126,
      "count": 65532,
      "max": [
        0.9513149857521057,
        0.7976779937744141,
        0.06942600011825562
      ],
      "min": [
        -0.9518640041351318,
        -0.8000119924545288,
        -0.3215180039405823
      ],
      "type": "VEC3"
    },
    {
      "bufferView": 2,
      "byteOffset": 5504688,
      "componentType": 5126,
      "count": 65532,
      "max": [
        0.9999872446060181,
        0.9999994039535522,
        0.9999960660934448
      ],
      "min": [
        -0.9999951720237732,
        -0.9999997615814209,
        -0.9999837875366211
      ],
      "type": "VEC3"
    },
    {
      "bufferView": 1,
      "byteOffset": 1572768,
      "componentType": 5126,
      "count": 65532,
      "max": [
        0.9998210072517395,
        0.9999889731407166
      ],
      "min": [
        9.200000204145908e-05,
        9.60230827331543e-05
      ],
      "type": "VEC2"
    },
    {
      "bufferView": 0,
      "byteOffset": 3885336,
      "componentType": 5125,
      "count": 315018,
      "type": "SCALAR"
    },
    {
      "bufferView": 2,
      "byteOffset": 6291072,
      "componentType": 5126,
      "count": 33324,
      "max": [
        0.9506980180740356,
        0.7977129817008972,
        0.03034600056707859
      ],
      "min": [
        -0.9481610059738159,
        -0.7996619939804077,
        -0.3322960138320923
      ],
      "type": "VEC3"
    },
    {
      "bufferView": 2,
      "byteOffset": 6690960,
      "componentType": 5126,
      "count": 33324,
      "max": [
        0.999987006187439,
        0.9999992847442627,
        0.9999996423721313
      ],
      "min": [
        -0.9999436140060425,
        -0.9999860525131226,
        -0.9999998807907104
      ],
      "type": "VEC3"
    },
    {
      "bufferView": 1,
      "byteOffset": 2097024,
      "componentType": 5126,
      "count": 33324,
      "max": [
        0.9999250173568726,
        0.9999859929084778
      ],
      "min": [
        1.700000029813964e-05,
        0.0005109906196594238
      ],
      "type": "VEC2"
    },
    {
      "bufferView": 0,
      "byteOffset": 5145408,
      "componentType": 5125,
      "count": 135873,
      "type": "SCALAR"
    }
  ],
  "asset": {
    "extras": {
      "author": "ssssrwefwet263 (https://sketchfab.com/burdin263)",
      "license": "SKETCHFAB Standard (https://sketchfab.com/licenses)",
      "source": "https://sketchfab.com/3d-models/black-leather-tote-bag-bed9b348afae4a4e9ad8ff9ae603c911",
      "title": "Black Leather Tote Bag"
    },
    "generator": "Sketchfab-16.75.0",
    "version": "2.0"
  },
  "bufferViews": [
    {
      "buffer": 0,
      "byteLength": 5688900,
      "name": "floatBufferViews",
      "target": 34963
    },
    {
      "buffer": 0,
      "byteLength": 2363616,
      "byteOffset": 5688900,
      "byteStride": 8,
      "name": "floatBufferViews",
      "target": 34962
    },
    {
      "buffer": 0,
      "byteLength": 7090848,
      "byteOffset": 8052516,
      "byteStride": 12,
      "name": "floatBufferViews",
      "target": 34962
    }
  ],
  "buffers": [
    {
      "byteLength": 15143364,
      "uri": "scene.bin"
    }
  ],
  "images": [
    {
      "uri": "textures/material_0_baseColor.jpeg"
    }
  ],
  "materials": [
    {
      "doubleSided": true,
      "name": "material_0",
      "pbrMetallicRoughness": {
        "baseColorTexture": {
          "index": 0
        },
        "metallicFactor": 0.0,
        "roughnessFactor": 0.8
      }
    }
  ],
  "meshes": [
    {
      "name": "Object_0",
      "primitives": [
        {
          "attributes": {
            "NORMAL": 1,
            "POSITION": 0,
            "TEXCOORD_0": 2
          },
          "indices": 3,
          "material": 0,
          "mode": 4
        }
      ]
    },
    {
      "name": "Object_1",
      "primitives": [
        {
          "attributes": {
            "NORMAL": 5,
            "POSITION": 4,
            "TEXCOORD_0": 6
          },
          "indices": 7,
          "material": 0,
          "mode": 4
        }
      ]
    },
    {
      "name": "Object_2",
      "primitives": [
        {
          "attributes": {
            "NORMAL": 9,
            "POSITION": 8,
            "TEXCOORD_0": 10
          },
          "indices": 11,
          "material": 0,
          "mode": 4
        }
      ]
    },
    {
      "name": "Object_3",
      "primitives": [
        {
          "attributes": {
            "NORMAL": 13,
            "POSITION": 12,
            "TEXCOORD_0": 14
          },
          "indices": 15,
          "material": 0,
          "mode": 4
        }
      ]
    },
    {
      "name": "Object_4",
      "primitives": [
        {
          "attributes": {
            "NORMAL": 17,
            "POSITION": 16,
            "TEXCOORD_0": 18
          },
          "indices": 19,
          "material": 0,
          "mode": 4
        }
      ]
    }
  ],
  "nodes": [
    {
      "children": [
        1
      ],
      "matrix": [
        1.0,
        0.0,
        0.0,
        0.0,
        0.0,
        2.220446049250313e-16,
        -1.0,
        0.0,
        0.0,
        1.0,
        2.220446049250313e-16,
        0.0,
        0.0,
        0.0,
        0.0,
        1.0
      ],
      "name": "Sketchfab_model"
    },
    {
      "children": [
        2
      ],
      "name": "root"
    },
    {
      "children": [
        3
      ],
      "matrix": [
        1.0,
        0.0,
        0.0,
        0.0,
        0.0,
        2.220446049250313e-16,
        1.0,
        0.0,
        0.0,
        -1.0,
        2.220446049250313e-16,
        0.0,
        0.0,
        0.0,
        0.0,
        1.0
      ],
      "name": "GLTF_SceneRootNode"
    },
    {
      "children": [
        4,
        5,
        6,
        7,
        8
      ],
      "name": "_0"
    },
    {
      "mesh": 0,
      "name": "Object_4"
    },
    {
      "mesh": 1,
      "name": "Object_5"
    },
    {
      "mesh": 2,
      "name": "Object_6"
    },
    {
      "mesh": 3,
      "name": "Object_7"
    },
    {
      "mesh": 4,
      "name": "Object_8"
    }
  ],
  "samplers": [
    {
      "magFilter": 9729,
      "minFilter": 9987,
      "wrapS": 10497,
      "wrapT": 10497
    }
  ],
  "scene": 0,
  "scenes": [
    {
      "name": "Sketchfab_Scene",
      "nodes": [
        0
      ]
    }
  ],
  "textures": [
    {
      "sampler": 0,
      "source": 0
    }
  ]
}
